# xmcd CD database file
#
# Track frame offsets:
#	150
#	19540
#	37680
#	58470
#	77805
#	107072
#	127960
#	143315
#	162442
#	179930
#	200077
#	223077
#	243230
#	264410
#	281392
#	299227
#
# Disc length: 4261 seconds
#
# Revision: 2
# Processed by: cddbd v1.4b41PL1 Copyright (c) Steve Scherf et al.
# Submitted via: Feurio! 1.50.2ß - http://www.feurio.com
#
DISCID=f210a310
DTITLE=Various Artist - Schmuse-Rock CD2
DYEAR=1900
DGENRE=
TTITLE0=Joe Cocker - What are you doing with a fool like me
TTITLE1=John Waite - Missing you
TTITLE2=Sade - The sweetest taboo
TTITLE3=Peter Blakeley - First time ever I saw your face
TTITLE4=Spandau Ballet - True
TTITLE5=Cock Robin - When your heart is weak
TTITLE6=Harold Melvin and the Blue Notes - If you don't know me by now
TTITLE7=Fish - A gentleman's excuse me
TTITLE8=Genesis - Follow you follow me
TTITLE9=Johnny Hates Jazz - Turn back the clock
TTITLE10=T'Pau - China in your hand
TTITLE11=Cutting Crew - I've been in love before
TTITLE12=Santana - I love you much too much
TTITLE13=Kim Carnes - Bette Davis eyes
TTITLE14=Boston - More than a feeling
TTITLE15=Europe - Carrie
EXTD=
EXTT0=
EXTT1=
EXTT2=
EXTT3=
EXTT4=
EXTT5=
EXTT6=
EXTT7=
EXTT8=
EXTT9=
EXTT10=
EXTT11=
EXTT12=
EXTT13=
EXTT14=
EXTT15=
PLAYORDER=
